<svg xmlns="http://www.w3.org/2000/svg"  viewBox="0 0 64 64" width="64px" height="64px"><linearGradient id="lDfdnyi4GZXHHxKpx0XlOa" x1="32" x2="32" y1="22.333" y2="42.616" gradientUnits="userSpaceOnUse" spreadMethod="reflect"><stop offset="0" stop-color="#6dc7ff"/><stop offset="1" stop-color="#e6abff"/></linearGradient><path fill="url(#lDfdnyi4GZXHHxKpx0XlOa)" d="M41.975,31.906c0,0,3.974-5.822,4.369-7.664C46.476,23.584,46.187,23,45.502,23 c0,0-2.29,0-3.448,0c-0.79,0-1.079,0.558-1.316,1.058c0,0-1.864,4.08-4.132,6.583c-0.728,0.809-0.914,1.107-1.316,1.107 c-0.324,0-0.29-0.216-0.29-0.946v-6.396C35,23.51,34.527,23,33.79,23h-5.527c-0.421,0-0.618,0.368-0.618,0.702 c0,0.843,1.356,1.156,1.356,3.44v4.711c0,0.948-0.119,1.316-0.566,1.316c-1.184,0-4.034-4.203-5.613-8.836 C22.505,23.387,22.13,23,21.235,23h-3.448c-0.5,0-0.869,0.466-0.869,0.966c0,0.921,1.079,5.247,5.317,10.959 c2.843,3.843,6.711,5.953,10.08,5.953c2.053,0,2.684-0.311,2.684-1.18v-2.948c0-0.737,0.158-1.053,0.579-1.053 c0.474,0,1.244,0.198,3.198,2.125C41.094,40.033,41.186,41,42.449,41h3.869c0.395,0,0.763-0.23,0.763-0.888 c0-0.869-1.132-2.444-2.869-4.287c-0.711-0.947-1.869-1.985-2.237-2.459C41.449,32.813,41.607,32.485,41.975,31.906z"/><linearGradient id="lDfdnyi4GZXHHxKpx0XlOb" x1="32" x2="32" y1="7.333" y2="56.334" gradientUnits="userSpaceOnUse" spreadMethod="reflect"><stop offset="0" stop-color="#1a6dff"/><stop offset="1" stop-color="#c822ff"/></linearGradient><path fill="url(#lDfdnyi4GZXHHxKpx0XlOb)" d="M49,56H15c-3.86,0-7-3.141-7-7V15c0-3.859,3.14-7,7-7h34c3.86,0,7,3.141,7,7v34 C56,52.859,52.86,56,49,56z M15,10c-2.757,0-5,2.243-5,5v34c0,2.757,2.243,5,5,5h34c2.757,0,5-2.243,5-5V15c0-2.757-2.243-5-5-5H15z"/></svg>